<mxfile host="Electron" modified="2023-06-03T06:40:42.921Z" agent="Mozilla/5.0 (Windows NT 10.0; Win64; x64) AppleWebKit/537.36 (KHTML, like Gecko) draw.io/21.2.8 Chrome/112.0.5615.165 Electron/24.2.0 Safari/537.36" etag="lnU9NF9W0vWZggYmh-Ek" version="21.2.8" type="device">
  <diagram id="C5RBs43oDa-KdzZeNtuy" name="Page-1">
    <mxGraphModel dx="1098" dy="988" grid="1" gridSize="10" guides="1" tooltips="1" connect="1" arrows="1" fold="1" page="1" pageScale="1" pageWidth="827" pageHeight="1169" math="0" shadow="0">
      <root>
        <mxCell id="WIyWlLk6GJQsqaUBKTNV-0" />
        <mxCell id="WIyWlLk6GJQsqaUBKTNV-1" parent="WIyWlLk6GJQsqaUBKTNV-0" />
        <mxCell id="WIyWlLk6GJQsqaUBKTNV-2" value="" style="rounded=0;html=1;jettySize=auto;orthogonalLoop=1;fontSize=11;endArrow=block;endFill=0;endSize=8;strokeWidth=1;shadow=0;labelBackgroundColor=none;edgeStyle=orthogonalEdgeStyle;" parent="WIyWlLk6GJQsqaUBKTNV-1" source="WIyWlLk6GJQsqaUBKTNV-3" target="WIyWlLk6GJQsqaUBKTNV-6" edge="1">
          <mxGeometry relative="1" as="geometry" />
        </mxCell>
        <mxCell id="WIyWlLk6GJQsqaUBKTNV-3" value="用户登录" style="rounded=1;whiteSpace=wrap;html=1;fontSize=12;glass=0;strokeWidth=1;shadow=0;" parent="WIyWlLk6GJQsqaUBKTNV-1" vertex="1">
          <mxGeometry x="160" y="80" width="120" height="40" as="geometry" />
        </mxCell>
        <mxCell id="WIyWlLk6GJQsqaUBKTNV-4" value="Yes" style="rounded=0;html=1;jettySize=auto;orthogonalLoop=1;fontSize=11;endArrow=block;endFill=0;endSize=8;strokeWidth=1;shadow=0;labelBackgroundColor=none;edgeStyle=orthogonalEdgeStyle;" parent="WIyWlLk6GJQsqaUBKTNV-1" source="WIyWlLk6GJQsqaUBKTNV-6" edge="1">
          <mxGeometry y="20" relative="1" as="geometry">
            <mxPoint as="offset" />
            <mxPoint x="220" y="290" as="targetPoint" />
          </mxGeometry>
        </mxCell>
        <mxCell id="WIyWlLk6GJQsqaUBKTNV-5" value="No" style="edgeStyle=orthogonalEdgeStyle;rounded=0;html=1;jettySize=auto;orthogonalLoop=1;fontSize=11;endArrow=block;endFill=0;endSize=8;strokeWidth=1;shadow=0;labelBackgroundColor=none;" parent="WIyWlLk6GJQsqaUBKTNV-1" source="WIyWlLk6GJQsqaUBKTNV-6" target="WIyWlLk6GJQsqaUBKTNV-7" edge="1">
          <mxGeometry y="10" relative="1" as="geometry">
            <mxPoint as="offset" />
          </mxGeometry>
        </mxCell>
        <mxCell id="WIyWlLk6GJQsqaUBKTNV-6" value="成功" style="rhombus;whiteSpace=wrap;html=1;shadow=0;fontFamily=Helvetica;fontSize=12;align=center;strokeWidth=1;spacing=6;spacingTop=-4;" parent="WIyWlLk6GJQsqaUBKTNV-1" vertex="1">
          <mxGeometry x="170" y="170" width="100" height="80" as="geometry" />
        </mxCell>
        <mxCell id="WIyWlLk6GJQsqaUBKTNV-7" value="提示错误信息，重新登录" style="rounded=1;whiteSpace=wrap;html=1;fontSize=12;glass=0;strokeWidth=1;shadow=0;" parent="WIyWlLk6GJQsqaUBKTNV-1" vertex="1">
          <mxGeometry x="320" y="190" width="180" height="40" as="geometry" />
        </mxCell>
        <mxCell id="3LG1ScytTN7EOjG7pWpv-2" value="&lt;font style=&quot;font-size: 18px;&quot;&gt;用户功能菜单&lt;br&gt;1关注股票&lt;br&gt;2关注股票交易信号显示&lt;/font&gt;" style="rounded=0;whiteSpace=wrap;html=1;align=left;" vertex="1" parent="WIyWlLk6GJQsqaUBKTNV-1">
          <mxGeometry x="160" y="290" width="420" height="90" as="geometry" />
        </mxCell>
        <mxCell id="3LG1ScytTN7EOjG7pWpv-6" value="关注股票" style="shape=table;startSize=30;container=1;collapsible=0;childLayout=tableLayout;strokeColor=default;fontSize=16;" vertex="1" parent="WIyWlLk6GJQsqaUBKTNV-1">
          <mxGeometry x="150" y="415" width="320" height="220" as="geometry" />
        </mxCell>
        <mxCell id="3LG1ScytTN7EOjG7pWpv-7" value="" style="shape=tableRow;horizontal=0;startSize=0;swimlaneHead=0;swimlaneBody=0;strokeColor=inherit;top=0;left=0;bottom=0;right=0;collapsible=0;dropTarget=0;fillColor=none;points=[[0,0.5],[1,0.5]];portConstraint=eastwest;fontSize=16;" vertex="1" parent="3LG1ScytTN7EOjG7pWpv-6">
          <mxGeometry y="30" width="320" height="63" as="geometry" />
        </mxCell>
        <mxCell id="3LG1ScytTN7EOjG7pWpv-8" value="600001" style="shape=partialRectangle;html=1;whiteSpace=wrap;connectable=0;strokeColor=inherit;overflow=hidden;fillColor=none;top=0;left=0;bottom=0;right=0;pointerEvents=1;fontSize=16;" vertex="1" parent="3LG1ScytTN7EOjG7pWpv-7">
          <mxGeometry width="107" height="63" as="geometry">
            <mxRectangle width="107" height="63" as="alternateBounds" />
          </mxGeometry>
        </mxCell>
        <mxCell id="3LG1ScytTN7EOjG7pWpv-9" value="" style="shape=partialRectangle;html=1;whiteSpace=wrap;connectable=0;strokeColor=inherit;overflow=hidden;fillColor=none;top=0;left=0;bottom=0;right=0;pointerEvents=1;fontSize=16;" vertex="1" parent="3LG1ScytTN7EOjG7pWpv-7">
          <mxGeometry x="107" width="106" height="63" as="geometry">
            <mxRectangle width="106" height="63" as="alternateBounds" />
          </mxGeometry>
        </mxCell>
        <mxCell id="3LG1ScytTN7EOjG7pWpv-10" value="删除" style="shape=partialRectangle;html=1;whiteSpace=wrap;connectable=0;strokeColor=inherit;overflow=hidden;fillColor=none;top=0;left=0;bottom=0;right=0;pointerEvents=1;fontSize=16;" vertex="1" parent="3LG1ScytTN7EOjG7pWpv-7">
          <mxGeometry x="213" width="107" height="63" as="geometry">
            <mxRectangle width="107" height="63" as="alternateBounds" />
          </mxGeometry>
        </mxCell>
        <mxCell id="3LG1ScytTN7EOjG7pWpv-11" value="" style="shape=tableRow;horizontal=0;startSize=0;swimlaneHead=0;swimlaneBody=0;strokeColor=inherit;top=0;left=0;bottom=0;right=0;collapsible=0;dropTarget=0;fillColor=none;points=[[0,0.5],[1,0.5]];portConstraint=eastwest;fontSize=16;" vertex="1" parent="3LG1ScytTN7EOjG7pWpv-6">
          <mxGeometry y="93" width="320" height="64" as="geometry" />
        </mxCell>
        <mxCell id="3LG1ScytTN7EOjG7pWpv-12" value="300001" style="shape=partialRectangle;html=1;whiteSpace=wrap;connectable=0;strokeColor=inherit;overflow=hidden;fillColor=none;top=0;left=0;bottom=0;right=0;pointerEvents=1;fontSize=16;" vertex="1" parent="3LG1ScytTN7EOjG7pWpv-11">
          <mxGeometry width="107" height="64" as="geometry">
            <mxRectangle width="107" height="64" as="alternateBounds" />
          </mxGeometry>
        </mxCell>
        <mxCell id="3LG1ScytTN7EOjG7pWpv-13" value="" style="shape=partialRectangle;html=1;whiteSpace=wrap;connectable=0;strokeColor=inherit;overflow=hidden;fillColor=none;top=0;left=0;bottom=0;right=0;pointerEvents=1;fontSize=16;" vertex="1" parent="3LG1ScytTN7EOjG7pWpv-11">
          <mxGeometry x="107" width="106" height="64" as="geometry">
            <mxRectangle width="106" height="64" as="alternateBounds" />
          </mxGeometry>
        </mxCell>
        <mxCell id="3LG1ScytTN7EOjG7pWpv-14" value="删除" style="shape=partialRectangle;html=1;whiteSpace=wrap;connectable=0;strokeColor=inherit;overflow=hidden;fillColor=none;top=0;left=0;bottom=0;right=0;pointerEvents=1;fontSize=16;" vertex="1" parent="3LG1ScytTN7EOjG7pWpv-11">
          <mxGeometry x="213" width="107" height="64" as="geometry">
            <mxRectangle width="107" height="64" as="alternateBounds" />
          </mxGeometry>
        </mxCell>
        <mxCell id="3LG1ScytTN7EOjG7pWpv-15" value="" style="shape=tableRow;horizontal=0;startSize=0;swimlaneHead=0;swimlaneBody=0;strokeColor=inherit;top=0;left=0;bottom=0;right=0;collapsible=0;dropTarget=0;fillColor=none;points=[[0,0.5],[1,0.5]];portConstraint=eastwest;fontSize=16;" vertex="1" parent="3LG1ScytTN7EOjG7pWpv-6">
          <mxGeometry y="157" width="320" height="63" as="geometry" />
        </mxCell>
        <mxCell id="3LG1ScytTN7EOjG7pWpv-16" value="" style="shape=partialRectangle;html=1;whiteSpace=wrap;connectable=0;strokeColor=inherit;overflow=hidden;fillColor=none;top=0;left=0;bottom=0;right=0;pointerEvents=1;fontSize=16;" vertex="1" parent="3LG1ScytTN7EOjG7pWpv-15">
          <mxGeometry width="107" height="63" as="geometry">
            <mxRectangle width="107" height="63" as="alternateBounds" />
          </mxGeometry>
        </mxCell>
        <mxCell id="3LG1ScytTN7EOjG7pWpv-17" value="" style="shape=partialRectangle;html=1;whiteSpace=wrap;connectable=0;strokeColor=inherit;overflow=hidden;fillColor=none;top=0;left=0;bottom=0;right=0;pointerEvents=1;fontSize=16;" vertex="1" parent="3LG1ScytTN7EOjG7pWpv-15">
          <mxGeometry x="107" width="106" height="63" as="geometry">
            <mxRectangle width="106" height="63" as="alternateBounds" />
          </mxGeometry>
        </mxCell>
        <mxCell id="3LG1ScytTN7EOjG7pWpv-18" value="" style="shape=partialRectangle;html=1;whiteSpace=wrap;connectable=0;strokeColor=inherit;overflow=hidden;fillColor=none;top=0;left=0;bottom=0;right=0;pointerEvents=1;fontSize=16;" vertex="1" parent="3LG1ScytTN7EOjG7pWpv-15">
          <mxGeometry x="213" width="107" height="63" as="geometry">
            <mxRectangle width="107" height="63" as="alternateBounds" />
          </mxGeometry>
        </mxCell>
        <mxCell id="3LG1ScytTN7EOjG7pWpv-19" value="交易信号" style="shape=table;startSize=30;container=1;collapsible=0;childLayout=tableLayout;strokeColor=default;fontSize=16;" vertex="1" parent="WIyWlLk6GJQsqaUBKTNV-1">
          <mxGeometry x="510" y="415" width="280" height="195" as="geometry" />
        </mxCell>
        <mxCell id="3LG1ScytTN7EOjG7pWpv-20" value="" style="shape=tableRow;horizontal=0;startSize=0;swimlaneHead=0;swimlaneBody=0;strokeColor=inherit;top=0;left=0;bottom=0;right=0;collapsible=0;dropTarget=0;fillColor=none;points=[[0,0.5],[1,0.5]];portConstraint=eastwest;fontSize=16;" vertex="1" parent="3LG1ScytTN7EOjG7pWpv-19">
          <mxGeometry y="30" width="280" height="55" as="geometry" />
        </mxCell>
        <mxCell id="3LG1ScytTN7EOjG7pWpv-21" value="600001&lt;span style=&quot;white-space: pre;&quot;&gt;	&lt;/span&gt;" style="shape=partialRectangle;html=1;whiteSpace=wrap;connectable=0;strokeColor=inherit;overflow=hidden;fillColor=none;top=0;left=0;bottom=0;right=0;pointerEvents=1;fontSize=16;align=left;" vertex="1" parent="3LG1ScytTN7EOjG7pWpv-20">
          <mxGeometry width="93" height="55" as="geometry">
            <mxRectangle width="93" height="55" as="alternateBounds" />
          </mxGeometry>
        </mxCell>
        <mxCell id="3LG1ScytTN7EOjG7pWpv-22" value="买入" style="shape=partialRectangle;html=1;whiteSpace=wrap;connectable=0;strokeColor=inherit;overflow=hidden;fillColor=none;top=0;left=0;bottom=0;right=0;pointerEvents=1;fontSize=16;" vertex="1" parent="3LG1ScytTN7EOjG7pWpv-20">
          <mxGeometry x="93" width="94" height="55" as="geometry">
            <mxRectangle width="94" height="55" as="alternateBounds" />
          </mxGeometry>
        </mxCell>
        <mxCell id="3LG1ScytTN7EOjG7pWpv-23" value="" style="shape=partialRectangle;html=1;whiteSpace=wrap;connectable=0;strokeColor=inherit;overflow=hidden;fillColor=none;top=0;left=0;bottom=0;right=0;pointerEvents=1;fontSize=16;" vertex="1" parent="3LG1ScytTN7EOjG7pWpv-20">
          <mxGeometry x="187" width="93" height="55" as="geometry">
            <mxRectangle width="93" height="55" as="alternateBounds" />
          </mxGeometry>
        </mxCell>
        <mxCell id="3LG1ScytTN7EOjG7pWpv-24" value="" style="shape=tableRow;horizontal=0;startSize=0;swimlaneHead=0;swimlaneBody=0;strokeColor=inherit;top=0;left=0;bottom=0;right=0;collapsible=0;dropTarget=0;fillColor=none;points=[[0,0.5],[1,0.5]];portConstraint=eastwest;fontSize=16;" vertex="1" parent="3LG1ScytTN7EOjG7pWpv-19">
          <mxGeometry y="85" width="280" height="55" as="geometry" />
        </mxCell>
        <mxCell id="3LG1ScytTN7EOjG7pWpv-25" value="300001" style="shape=partialRectangle;html=1;whiteSpace=wrap;connectable=0;strokeColor=inherit;overflow=hidden;fillColor=none;top=0;left=0;bottom=0;right=0;pointerEvents=1;fontSize=16;align=left;" vertex="1" parent="3LG1ScytTN7EOjG7pWpv-24">
          <mxGeometry width="93" height="55" as="geometry">
            <mxRectangle width="93" height="55" as="alternateBounds" />
          </mxGeometry>
        </mxCell>
        <mxCell id="3LG1ScytTN7EOjG7pWpv-26" value="卖出" style="shape=partialRectangle;html=1;whiteSpace=wrap;connectable=0;strokeColor=inherit;overflow=hidden;fillColor=none;top=0;left=0;bottom=0;right=0;pointerEvents=1;fontSize=16;" vertex="1" parent="3LG1ScytTN7EOjG7pWpv-24">
          <mxGeometry x="93" width="94" height="55" as="geometry">
            <mxRectangle width="94" height="55" as="alternateBounds" />
          </mxGeometry>
        </mxCell>
        <mxCell id="3LG1ScytTN7EOjG7pWpv-27" value="" style="shape=partialRectangle;html=1;whiteSpace=wrap;connectable=0;strokeColor=inherit;overflow=hidden;fillColor=none;top=0;left=0;bottom=0;right=0;pointerEvents=1;fontSize=16;" vertex="1" parent="3LG1ScytTN7EOjG7pWpv-24">
          <mxGeometry x="187" width="93" height="55" as="geometry">
            <mxRectangle width="93" height="55" as="alternateBounds" />
          </mxGeometry>
        </mxCell>
        <mxCell id="3LG1ScytTN7EOjG7pWpv-28" value="" style="shape=tableRow;horizontal=0;startSize=0;swimlaneHead=0;swimlaneBody=0;strokeColor=inherit;top=0;left=0;bottom=0;right=0;collapsible=0;dropTarget=0;fillColor=none;points=[[0,0.5],[1,0.5]];portConstraint=eastwest;fontSize=16;" vertex="1" parent="3LG1ScytTN7EOjG7pWpv-19">
          <mxGeometry y="140" width="280" height="55" as="geometry" />
        </mxCell>
        <mxCell id="3LG1ScytTN7EOjG7pWpv-29" value="" style="shape=partialRectangle;html=1;whiteSpace=wrap;connectable=0;strokeColor=inherit;overflow=hidden;fillColor=none;top=0;left=0;bottom=0;right=0;pointerEvents=1;fontSize=16;" vertex="1" parent="3LG1ScytTN7EOjG7pWpv-28">
          <mxGeometry width="93" height="55" as="geometry">
            <mxRectangle width="93" height="55" as="alternateBounds" />
          </mxGeometry>
        </mxCell>
        <mxCell id="3LG1ScytTN7EOjG7pWpv-30" value="" style="shape=partialRectangle;html=1;whiteSpace=wrap;connectable=0;strokeColor=inherit;overflow=hidden;fillColor=none;top=0;left=0;bottom=0;right=0;pointerEvents=1;fontSize=16;" vertex="1" parent="3LG1ScytTN7EOjG7pWpv-28">
          <mxGeometry x="93" width="94" height="55" as="geometry">
            <mxRectangle width="94" height="55" as="alternateBounds" />
          </mxGeometry>
        </mxCell>
        <mxCell id="3LG1ScytTN7EOjG7pWpv-31" value="" style="shape=partialRectangle;html=1;whiteSpace=wrap;connectable=0;strokeColor=inherit;overflow=hidden;fillColor=none;top=0;left=0;bottom=0;right=0;pointerEvents=1;fontSize=16;" vertex="1" parent="3LG1ScytTN7EOjG7pWpv-28">
          <mxGeometry x="187" width="93" height="55" as="geometry">
            <mxRectangle width="93" height="55" as="alternateBounds" />
          </mxGeometry>
        </mxCell>
      </root>
    </mxGraphModel>
  </diagram>
</mxfile>
